<svg xmlns="http://www.w3.org/2000/svg" xmlns:xlink="http://www.w3.org/1999/xlink" x="0px" y="0px" viewBox="0 0 1200 500" style="enable-background:new 0 0 1200 500;" xml:space="preserve"><style type="text/css">	.st0{fill:#3D3D3B;}	.st1{fill:#E20E17;}	.st2{fill:url(#SVGID_1_);}	.st3{display:none;}	.st4{display:inline;}	.st5{fill:#FFFFFF;}</style><g id="Logo_a_color">	<g>		<g>			<g>				<rect x="359.4" y="223.9" class="st0" width="26.8" height="110.4"></rect>			</g>			<g>				<path class="st0" d="M531.4,279.1c0-32.9,25.2-57.6,58.9-57.6c20.8,0,34.2,7.9,44.7,21l-18.9,15.2c-5.2-7.6-14.5-12.9-25.8-12.9     c-19.7,0-31.5,14.5-31.5,34.2c0,19.7,11.8,34.2,31.5,34.2c13.1,0,21-5.5,27.1-12.4l18.1,15.8c-10.8,12.3-23.9,20-45.2,20     C556.7,336.6,531.4,312.2,531.4,279.1z"></path>			</g>			<g>				<path class="st0" d="M699.1,285.1v-61.2h26.6v60.4c0,18.9,7.1,29.2,24.7,29.2c17.6,0,24.7-10.2,24.7-29.2v-60.4h26.6v61.2     c0,32.3-19.5,51.8-52.3,51.8C717,336.9,699.1,317.4,699.1,285.1z"></path>			</g>			<g>				<path class="st0" d="M810.2,313.7l18.1-12.6c6.8,9.7,17.1,14.2,29.7,14.2c13.4,0,19.4-4.5,19.4-11.8c0-8.9-8.1-10.3-26.8-15.5     c-16.3-4.5-32.6-12.1-32.6-33.9c0-22.1,17.6-32.6,39.4-32.6c17.6,0,30,7.4,38.4,16.5l-15.5,15.3c-5.3-6.1-12.9-10.8-22.9-10.8     c-10,0-15.5,3.7-15.5,10.3c0,8.4,6.8,10.2,24.2,14.7c17.3,4.5,36.3,11.3,36.3,34.7c0,18.9-11.6,34.4-42.8,34.4     C834.4,336.6,817.6,325.6,810.2,313.7z"></path>			</g>			<g>				<rect x="921.2" y="223.9" class="st0" width="26.8" height="110.4"></rect>			</g>			<path class="st0" d="M1022.4,221.5c-33.4,0-59.6,24.7-59.6,57.6c0,32.9,26.3,57.6,59.6,57.6c33.6,0,59.4-24.7,59.4-57.6    C1081.8,246.2,1056,221.5,1022.4,221.5z M1022.4,313.7c-19.7,0-32.3-14.4-32.3-34.7c0-20.2,12.6-34.4,32.3-34.4    c19.7,0,32,14.2,32,34.4C1054.5,299.3,1042.1,313.7,1022.4,313.7z"></path>			<path class="st0" d="M372.8,181.8c-7.9,0-14.3,6.4-14.3,14.3c0,7.9,6.4,14.3,14.3,14.3c7.9,0,14.3-6.4,14.3-14.3    C387.2,188.2,380.7,181.8,372.8,181.8z"></path>			<path class="st0" d="M934.6,181.8c-7.9,0-14.3,6.4-14.3,14.3c0,7.9,6.4,14.3,14.3,14.3c7.9,0,14.3-6.4,14.3-14.3    C948.9,188.2,942.5,181.8,934.6,181.8z"></path>			<path class="st0" d="M657.1,175.6H652v158.6h26.5v-131C678.5,194.8,676.3,175.6,657.1,175.6z"></path>			<path class="st0" d="M474.7,221.5c-16.5,0-33.9,0-33.9,0h-26.5v112.7h26.5v-88.3h25.8c15.5,0,22.9,9.2,22.9,25v63.3h26.5v-65.4    C515.9,238.8,499.1,221.5,474.7,221.5z"></path>			<path class="st0" d="M1158.7,221.5c-16.5,0-33.9,0-33.9,0h-26.5v112.7h26.5v-88.3h25.8c15.5,0,22.9,9.2,22.9,25v63.3h26.6v-65.4    C1200,238.8,1183.2,221.5,1158.7,221.5z"></path>		</g>		<g>			<g>				<path class="st1" d="M88.1,289c-10.2-11-26.8-13.8-45.4-12.1c7.7,5.3,20.2,16.5,20.3,16.6l40.3,40.6c7.2,8.1,28.1,23,57.8,24.6     c-7.7-5.4-19.5-16-19.6-16.1L88.1,289z"></path>				<linearGradient id="SVGID_1_" gradientUnits="userSpaceOnUse" x1="148.9503" y1="367.2294" x2="154.9084" y2="111.0316">					<stop offset="0" style="stop-color:#365EA7"></stop>					<stop offset="0.2878" style="stop-color:#488BCA"></stop>					<stop offset="0.5578" style="stop-color:#50A1D9"></stop>					<stop offset="0.7566" style="stop-color:#56ADE2"></stop>				</linearGradient>				<path class="st2" d="M277.6,348.3c-6.8,6.1-15.1,10.5-23.3,12.9c-13.8,3.9-33.5,2.3-49.6-6.8c-7.3-4.1-14.1-8.5-20-13.4     c-8-6.7-33.7-32.2-45.6-44.2c0,0-38-41.3-50.1-50.1c-6.3-4.6-15.3-6.9-20.5-7.1c-20.7-0.7-33.6,13.6-37.8,24.2     c-5,12.6-5.8,23.8-4.4,32.5c4.3,27.7,24.1,39.3,33.6,45.6c17.6,11.6,33.9,14.9,41.3,16.9c-40.2,5.1-67-8.1-75.9-14.4     c-7.7-5.4-14.1-13.2-17.4-20c-4.1-8.3-6-14.9-7.1-22.7c-0.3-2.1-3.4-26.5,5.7-47.7c3.5-8.3,14-27.7,36.1-35.9     c38.9-14.4,65.3,9.3,71.4,15.1c2.2,2,43.8,45.3,43.8,45.3c11.7,12,20.6,21.1,29.3,29.1c24.3,22.6,37,32.1,60.3,28.4     c4.6-0.7,13.8-3.9,22.1-19.7c4.9-9.4,10.5-27.6-0.2-52.3c-6.9-16-26.6-37.9-65.8-46.3c12-1.3,22.3-1.9,33.1-0.1     c14.5,2.4,26.1,7.8,39.3,17.6c18.4,13.6,23.4,34.7,24.9,44.3c2.5,15.9-0.5,32.9-7.7,48.2C288,338.4,279.2,346.8,277.6,348.3z      M147.1,226.5l59.9,60.6c14.3,14.7,27.8,18,47.1,18.3c-2.5-2.8-8-8.5-17.6-18.3c0,0-52.9-55.9-72.8-75.9     C136.4,183.8,93,179.2,93,179.2s14.9-21,57.8-21.1c24.9,0,48.3,25.3,58.2,36.8H235c-0.3-0.9-38.8-58.9-88.8-58     c-9.2,0.2-32,1.8-52,13.7c-23.6,14.1-31.7,43.2-33.7,48.5c11.7-0.5,52.4-3.1,80.8,21.5C142.5,221.7,147.1,226.5,147.1,226.5z"></path>			</g>		</g>	</g></g><g id="Logo_en_blanco" class="st3">	<g class="st4">		<g>			<g>				<rect x="382.5" y="226.1" class="st5" width="24.2" height="99.8"></rect>			</g>			<g>				<path class="st5" d="M538,276c0-29.7,22.8-52,53.2-52c18.8,0,30.9,7.1,40.4,19l-17.1,13.8c-4.7-6.9-13.1-11.6-23.3-11.6     c-17.8,0-28.5,13.1-28.5,30.9c0,17.8,10.7,30.9,28.5,30.9c11.9,0,19-5,24.5-11.2l16.4,14.2c-9.7,11.2-21.6,18.1-40.9,18.1     C560.8,328,538,305.9,538,276z"></path>			</g>			<g>				<path class="st5" d="M689.6,281.4v-55.4h24v54.6c0,17.1,6.4,26.4,22.3,26.4c15.9,0,22.3-9.3,22.3-26.4v-54.6h24v55.4     c0,29.2-17.6,46.8-47.3,46.8C705.7,328.2,689.6,310.6,689.6,281.4z"></path>			</g>			<g>				<path class="st5" d="M790,307.3l16.4-11.4c6.2,8.8,15.4,12.8,26.9,12.8c12.1,0,17.6-4,17.6-10.7c0-8.1-7.4-9.3-24.2-14     c-14.7-4-29.5-10.9-29.5-30.6c0-20,15.9-29.5,35.6-29.5c15.9,0,27.1,6.7,34.7,15l-14,13.8c-4.7-5.5-11.6-9.7-20.7-9.7     c-9,0-14,3.3-14,9.3c0,7.6,6.2,9.3,21.9,13.3c15.7,4,32.8,10.2,32.8,31.4c0,17.1-10.5,31.1-38.7,31.1     C811.9,328,796.6,318,790,307.3z"></path>			</g>			<g>				<rect x="890.3" y="226.1" class="st5" width="24.2" height="99.8"></rect>			</g>			<path class="st5" d="M981.8,223.9c-30.2,0-53.9,22.3-53.9,52c0,29.7,23.8,52,53.9,52c30.4,0,53.7-22.3,53.7-52    C1035.5,246.3,1012.2,223.9,981.8,223.9z M981.8,307.3c-17.8,0-29.2-13.1-29.2-31.4c0-18.3,11.4-31.1,29.2-31.1    c17.8,0,29,12.8,29,31.1C1010.8,294.3,999.6,307.3,981.8,307.3z"></path>			<path class="st5" d="M394.6,188.1c-7.2,0-13,5.8-13,12.9c0,7.2,5.8,13,13,13c7.1,0,13-5.8,13-13    C407.6,193.9,401.8,188.1,394.6,188.1z"></path>			<path class="st5" d="M902.4,188.1c-7.2,0-13,5.8-13,12.9c0,7.2,5.8,13,13,13c7.1,0,12.9-5.8,12.9-13    C915.4,193.9,909.6,188.1,902.4,188.1z"></path>			<path class="st5" d="M651.6,182.5H647v143.4h24V207.5C671,199.8,669,182.5,651.6,182.5z"></path>			<path class="st5" d="M486.7,223.9c-15,0-30.6,0-30.6,0h-24v101.9h24V246h23.3c14,0,20.7,8.3,20.7,22.6v57.3h24v-59.2    C524,239.6,508.8,223.9,486.7,223.9z"></path>			<path class="st5" d="M1105,223.9c-15,0-30.6,0-30.6,0h-24v101.9h24V246h23.3c14,0,20.7,8.3,20.7,22.6v57.3h24v-59.2    C1142.4,239.6,1127.1,223.9,1105,223.9z"></path>		</g>		<g>			<g>				<path class="st1" d="M137.2,284.9c-9.2-9.9-24.2-12.5-41.1-10.9c7,4.8,18.2,14.9,18.3,15l36.4,36.7c6.5,7.4,25.4,20.8,52.2,22.3     c-7-4.9-17.6-14.4-17.7-14.5L137.2,284.9z"></path>				<path class="st5" d="M308.5,338.5c-6.1,5.5-13.6,9.5-21.1,11.6c-12.5,3.5-30.2,2.1-44.9-6.2c-6.6-3.7-12.7-7.6-18.1-12.1     c-7.3-6-30.5-29.1-41.2-40c0,0-34.3-37.3-45.3-45.3c-5.7-4.2-13.8-6.2-18.5-6.4c-18.8-0.7-30.4,12.3-34.2,21.9     c-4.5,11.4-5.2,21.5-4,29.4c3.9,25,21.8,35.5,30.4,41.2c15.9,10.5,30.7,13.4,37.3,15.3c-36.3,4.6-60.6-7.3-68.6-13     c-7-4.9-12.7-11.9-15.8-18.1c-3.7-7.5-5.5-13.5-6.4-20.6c-0.2-1.9-3-24,5.1-43.2c3.2-7.5,12.6-25,32.7-32.4     c35.1-13,59,8.4,64.5,13.7c2,1.8,39.6,41,39.6,41c10.6,10.8,18.6,19,26.5,26.3c22,20.4,33.5,29,54.5,25.7     c4.2-0.6,12.5-3.5,20-17.8c4.4-8.5,9.5-24.9-0.2-47.3c-6.2-14.4-24.1-34.3-59.5-41.8c10.8-1.2,20.2-1.8,29.9-0.1     c13.1,2.2,23.6,7.1,35.5,15.9c16.6,12.3,21.1,31.3,22.5,40.1c2.3,14.4-0.4,29.7-6.9,43.6C317.9,329.6,310,337.2,308.5,338.5z      M190.5,228.5l54.1,54.8c12.9,13.3,25.2,16.3,42.6,16.5c-2.3-2.5-7.2-7.7-15.9-16.5c0,0-47.8-50.5-65.8-68.6     c-24.7-24.8-63.9-29-63.9-29s13.4-19,52.2-19c22.5,0,43.7,22.9,52.6,33.2H270c-0.3-0.8-35.1-53.3-80.3-52.4     c-8.3,0.2-28.9,1.6-47,12.4c-21.3,12.7-28.7,39.1-30.5,43.8c10.5-0.5,47.4-2.8,73.1,19.5C186.5,224.2,190.5,228.5,190.5,228.5z"></path>			</g>		</g>	</g></g></svg>